# xmcd CD database file
#
# Track frame offsets:
#	150
#	22907
#	46230
#	65035
#	83052
#	90655
#	113425
#	124547
#	130822
#	145322
#	163967
#	183522
#	205895
#	244640
#
# Disc length: 4543 seconds
#
# Revision: 0
# Processed by: cddbd v1.4PL0 Copyright (c) Steve Scherf et al.
# Submitted via: CDex 1.50
#
DISCID=b911bd0e
DTITLE=MIX-CITY - ON TRACK
DYEAR=2002
DGENRE=Jazz
TTITLE0=On track
TTITLE1=Yah Da Woom
TTITLE2=Tsoin
TTITLE3=Les araignées
TTITLE4=Diaphane
TTITLE5=Ice eyes
TTITLE6=Take it easy
TTITLE7=Bord de transe
TTITLE8=Transe
TTITLE9=Boroo boroo
TTITLE10=Un jour nouveau
TTITLE11=Stop the kangooroo
TTITLE12=Cling dense
TTITLE13=Data
EXTD=YEAR: 2002
EXTT0=
EXTT1=
EXTT2=
EXTT3=
EXTT4=
EXTT5=
EXTT6=
EXTT7=
EXTT8=
EXTT9=
EXTT10=
EXTT11=
EXTT12=
EXTT13=
PLAYORDER=
